<?xml version="1.0" standalone="no"?>
<!DOCTYPE svg PUBLIC "-//W3C//DTD SVG 20010904//EN"
 "http://www.w3.org/TR/2001/REC-SVG-20010904/DTD/svg10.dtd">
<svg version="1.0" xmlns="http://www.w3.org/2000/svg"
 width="1280.000000pt" height="1052.000000pt" viewBox="0 0 1280.000000 1052.000000"
 preserveAspectRatio="xMidYMid meet">
<metadata>
Created by potrace 1.15, written by Peter Selinger 2001-2017
</metadata>
<g transform="translate(0.000000,1052.000000) scale(0.100000,-0.100000)"
fill="#000000" stroke="none">
<path d="M4735 10510 c-327 -9 -422 -20 -610 -75 -429 -125 -706 -430 -885
-975 -98 -296 -118 -434 -127 -875 -8 -427 12 -600 75 -634 63 -33 86 -16 497
369 335 315 477 435 660 557 409 274 940 453 1575 528 185 22 678 31 862 16
373 -32 666 -87 973 -183 179 -56 316 -113 502 -207 342 -173 522 -309 993
-751 207 -194 342 -307 390 -327 26 -11 32 -10 59 13 68 57 96 201 95 489 -1
226 -18 414 -60 645 -92 501 -225 799 -462 1033 -110 109 -171 155 -292 217
-196 100 -332 130 -700 150 -235 13 -3135 21 -3545 10z"/>
<path d="M571 8509 c-190 -23 -293 -69 -401 -178 -132 -134 -177 -262 -166
-478 16 -310 99 -590 236 -794 58 -86 298 -323 388 -382 125 -83 205 -116 536
-217 382 -117 391 -130 255 -346 -151 -239 -195 -321 -252 -474 -218 -584 42
-974 747 -1115 262 -52 674 -83 704 -53 20 20 13 38 -20 52 -40 17 -80 22
-313 41 -493 42 -780 138 -960 321 -231 234 -189 591 135 1128 130 217 149
271 116 334 -36 70 -96 99 -420 206 -140 46 -293 102 -340 124 -263 124 -457
314 -585 575 -102 208 -123 314 -125 627 l-1 215 30 55 c43 77 141 175 208
205 179 82 502 84 886 5 298 -61 413 -120 579 -295 296 -312 509 -846 732
-1835 57 -255 86 -356 102 -366 6 -4 17 2 25 12 11 14 13 36 8 89 -16 172
-137 692 -239 1030 -162 532 -340 892 -554 1117 -145 152 -266 228 -457 287
-293 90 -650 136 -854 110z"/>
<path d="M11920 8510 c-225 -22 -604 -108 -704 -160 -455 -239 -779 -900
-1041 -2124 -41 -193 -54 -318 -36 -340 34 -40 56 12 106 249 211 991 428
1559 725 1903 186 215 411 314 839 367 101 13 179 16 315 12 253 -7 313 -26
432 -139 43 -41 84 -92 105 -130 l34 -63 -1 -170 c-5 -589 -175 -933 -579
-1166 -126 -72 -225 -112 -515 -211 -146 -49 -284 -100 -307 -114 -109 -63
-98 -162 40 -376 120 -186 216 -402 264 -595 36 -145 38 -310 5 -393 -42 -106
-163 -230 -300 -307 -177 -99 -544 -183 -872 -198 -190 -8 -218 -13 -230 -36
-8 -13 -7 -25 0 -39 10 -18 21 -20 109 -20 174 0 441 32 640 76 519 116 771
357 771 735 0 181 -109 484 -265 739 -32 52 -78 128 -102 168 -50 80 -58 129
-29 160 27 31 117 66 301 121 231 68 332 104 451 162 246 122 455 337 574 592
95 203 143 419 144 647 0 149 -1 159 -30 242 -104 292 -269 401 -624 412 -74
3 -173 1 -220 -4z"/>
<path d="M4185 7574 c-166 -25 -305 -81 -422 -170 -176 -135 -286 -345 -299
-569 -6 -100 4 -132 47 -152 39 -19 106 5 229 82 210 132 407 214 535 222 73
5 90 2 186 -30 125 -42 253 -104 393 -192 161 -100 235 -114 265 -48 36 78 -2
294 -75 434 -96 182 -295 340 -504 399 -74 21 -282 35 -355 24z"/>
<path d="M8415 7555 c-189 -41 -324 -114 -455 -245 -81 -81 -103 -109 -143
-190 -60 -123 -90 -246 -85 -356 2 -64 7 -87 23 -104 28 -31 54 -23 239 79
358 197 408 216 556 215 174 -2 252 -31 610 -228 85 -48 165 -86 177 -86 37 0
56 42 61 134 11 219 -105 446 -310 610 -104 84 -197 129 -328 161 -119 28
-245 32 -345 10z"/>
<path d="M1076 7371 c-13 -20 14 -50 132 -149 235 -198 428 -456 620 -830 l84
-164 -31 -36 c-233 -272 -305 -397 -280 -485 22 -81 107 -127 354 -191 198
-51 285 -84 365 -138 66 -43 94 -77 138 -163 16 -33 39 -68 50 -78 18 -17 21
-17 37 -1 38 39 -25 184 -119 272 -103 95 -188 130 -505 206 -202 49 -249 85
-222 169 26 79 212 327 245 327 7 0 40 -46 73 -102 33 -57 78 -134 101 -173
57 -98 94 -140 116 -132 26 10 17 36 -84 246 -209 428 -407 786 -538 971 -83
117 -313 351 -402 408 -70 44 -123 61 -134 43z"/>
<path d="M11642 7353 c-146 -79 -330 -258 -447 -437 -229 -349 -646 -1168
-612 -1202 3 -4 14 -1 24 7 23 19 117 166 183 288 30 55 60 101 65 101 13 0
150 -139 192 -195 48 -63 85 -144 79 -171 -14 -54 -122 -104 -321 -149 -318
-71 -464 -163 -549 -345 -31 -66 -32 -82 -8 -103 39 -36 63 -17 98 78 11 31
37 69 69 101 78 79 181 126 380 175 310 77 394 125 403 231 2 29 -1 72 -7 94
-17 63 -98 178 -201 287 l-94 99 83 166 c215 431 423 705 670 881 94 67 118
92 105 112 -10 17 -61 9 -112 -18z"/>
<path d="M6213 6340 c-328 -85 -816 -422 -1273 -880 -272 -271 -453 -504 -550
-704 -113 -234 -124 -507 -30 -737 125 -303 549 -783 1029 -1167 249 -200 573
-394 771 -464 60 -21 82 -22 290 -23 187 0 237 3 297 18 89 23 297 124 429
207 523 332 1151 960 1346 1345 110 216 135 487 66 699 -73 224 -264 483 -608
827 -220 220 -357 341 -560 491 -310 230 -524 338 -770 388 -130 27 -333 26
-437 0z"/>
<path d="M3335 3673 c-86 -86 214 -667 805 -1557 474 -714 854 -1201 1221
-1563 229 -225 406 -361 599 -458 174 -87 186 -90 440 -90 219 1 227 1 303 28
556 195 1133 810 2023 2157 306 463 491 772 630 1050 90 181 130 283 140 358
5 42 3 53 -15 71 -29 29 -59 26 -127 -10 -134 -70 -297 -222 -1239 -1159
-1053 -1046 -1144 -1130 -1358 -1244 -136 -72 -203 -91 -337 -91 -100 0 -127
4 -202 29 -49 15 -127 51 -175 78 -209 120 -246 155 -1438 1338 -692 687 -982
965 -1060 1015 -99 63 -178 81 -210 48z"/>
</g>
</svg>
